<svg width="381" height="266" viewBox="0 0 381 266" fill="none" xmlns="http://www.w3.org/2000/svg">
<mask id="mask0_93_760" style="mask-type:luminance" maskUnits="userSpaceOnUse" x="0" y="0" width="184" height="266">
<path d="M0.083374 0H183.344V265.76H0.083374V0Z" fill="white"/>
</mask>
<g mask="url(#mask0_93_760)">
<path d="M183.245 265.547H40.2344V54.1667L2.70317 91.6979V264.229H0.083374V90.6146L40.2344 50.4635V8.92708L61 29.6927L90.4167 0.28125L183.24 93.1042V265.547H183.245ZM42.8542 262.922H180.62V94.1927L90.4167 3.98438L62.8542 31.5469L133.912 102.604V179.25H131.287V103.688L61.0053 33.4063L42.8542 51.5469V262.922ZM42.8542 15.2552V47.8385L59.1511 31.5469L42.8542 15.2552ZM112.083 264.214L111.203 200.354H71.2448V264.234H73.8698V202.979H108.62L109.469 264.25L112.083 264.214Z" fill="white"/>
</g>
<path d="M205.708 177.229C200.573 172.198 183.615 175.542 173.307 181.813C166.62 185.88 163.688 190.531 165.031 194.912C165.172 195.396 165.688 195.636 166.172 195.495C166.656 195.359 166.896 194.844 166.755 194.359C165.307 189.636 170.823 185.432 174.24 183.365C184.786 176.917 200.297 174.438 204.432 178.537C206.089 180.125 205.813 182.776 203.708 186.365C200.057 192.604 190.406 197.12 183.615 198.912C183.302 199.016 182.818 198.839 182.891 198.047C182.922 197.74 182.995 197.427 183.063 197.12C184.198 191.396 185.615 184.261 187.714 183.745C188.198 183.641 188.505 183.156 188.37 182.672C188.266 182.193 187.786 181.88 187.302 181.984C184.063 182.776 182.786 189.261 181.271 196.771C181.167 197.359 181.026 197.979 180.922 198.599C180.854 198.912 180.854 199.703 179.339 199.74C178.443 199.839 177.51 199.771 176.615 199.563C176.615 199.495 176.651 199.115 177.51 198.292C177.854 197.943 177.854 197.359 177.51 197.016C177.13 196.667 176.583 196.667 176.203 197.016C175.786 197.464 174.411 198.807 174.891 200.151C175.203 200.979 176.031 201.458 177.406 201.563C177.651 201.599 177.891 201.599 178.167 201.599H179.099C179.375 201.599 179.651 201.734 179.854 201.979C180.026 202.182 180.099 202.495 180.026 202.771C179.099 206.563 178.031 209.766 176.615 210.146C176.307 210.214 176.063 210.458 175.958 210.802C175.891 211.115 175.958 211.458 176.203 211.662C176.443 211.906 176.786 211.974 177.099 211.906C179.547 211.25 180.891 207.287 182.026 202.115C182.167 201.495 182.646 201.011 183.234 200.875C190.578 199.115 201.193 194.255 205.26 187.292C208.5 181.776 207.292 178.781 205.708 177.229Z" fill="#E8E7E7"/>
<path d="M221.84 202.906C221.496 202.531 220.908 202.495 220.527 202.839C220.428 202.943 210.189 212.146 203.845 207.974C201.329 206.323 200.71 202.323 200.71 202.287C200.673 201.875 200.366 201.563 199.949 201.495C199.569 201.458 199.158 201.667 198.986 202.011C197.366 205.599 194.507 210.146 193.71 209.63C193.642 209.63 193.507 209.49 193.402 209.25C192.986 208.115 193.126 206.87 193.71 205.802C195.022 203.115 197.434 201.182 200.329 200.458C200.642 200.391 200.882 200.151 200.986 199.839C201.09 199.531 200.986 199.188 200.777 198.943C200.538 198.74 200.225 198.636 199.918 198.703C196.47 199.531 193.611 201.875 192.059 205.047C191.231 206.599 191.126 208.458 191.783 210.078C192.09 210.87 192.85 211.422 193.71 211.422H193.746C195.434 211.386 197.538 209.287 198.986 207.011C199.158 206.734 199.47 206.599 199.777 206.63C200.09 206.63 200.366 206.802 200.501 207.078C201.09 208.047 201.882 208.87 202.845 209.458C210.361 214.453 221.288 204.599 221.772 204.182C221.944 204.011 222.048 203.771 222.048 203.563C222.079 203.323 221.975 203.078 221.84 202.906Z" fill="#E8E7E7"/>
<path d="M250.586 202.182C250.415 202.01 250.206 201.906 249.967 201.906C249.722 201.906 249.482 202.01 249.31 202.182C243.347 208.01 232.764 209.25 230.487 207.906C228.941 207.01 229.112 205.943 230.217 203.802C230.732 202.771 231.316 201.562 230.316 200.838C229.389 200.151 228.493 200.599 227.696 201.01C226.56 201.667 225.284 202.01 223.941 202.01C223.628 202.01 223.357 201.458 223.425 201.255C225.352 197.016 224.493 196.219 224.18 195.911C223.665 195.396 222.873 195.427 221.909 196.016C220.321 197.151 219.633 199.187 220.185 201.083C220.321 201.599 220.56 202.083 220.909 202.495C220.873 202.875 221.045 203.219 221.389 203.391C221.597 203.495 221.836 203.495 222.081 203.427C222.665 203.703 223.321 203.838 223.977 203.838C225.389 203.875 226.769 203.562 228.008 202.875C228.493 202.63 228.665 202.838 228.592 202.979C227.769 204.599 226.284 207.562 229.592 209.49C230.764 210.042 232.076 210.286 233.383 210.182C238.211 210.182 245.795 208.115 250.55 203.458C250.722 203.323 250.826 203.078 250.826 202.838C250.862 202.599 250.758 202.354 250.586 202.182ZM221.873 200.286C221.665 199.286 222.008 198.255 222.805 197.599C222.56 198.531 222.253 199.427 221.873 200.323V200.286Z" fill="#E8E7E7"/>
<path d="M277.955 202.906C277.611 202.531 277.023 202.495 276.642 202.839C276.543 202.943 266.304 212.146 259.96 207.974C257.444 206.323 256.825 202.323 256.825 202.287C256.788 201.875 256.481 201.563 256.064 201.495C255.684 201.458 255.273 201.667 255.101 202.011C253.481 205.599 250.622 210.146 249.825 209.63C249.757 209.63 249.622 209.49 249.517 209.25C249.101 208.115 249.241 206.87 249.825 205.802C251.137 203.115 253.549 201.182 256.444 200.458C256.757 200.391 256.997 200.151 257.101 199.839C257.205 199.531 257.101 199.188 256.892 198.943C256.653 198.74 256.34 198.636 256.033 198.703C252.585 199.531 249.726 201.875 248.174 205.047C247.346 206.599 247.241 208.458 247.898 210.078C248.205 210.87 248.965 211.422 249.825 211.422H249.861C251.549 211.386 253.653 209.287 255.101 207.011C255.273 206.734 255.585 206.599 255.892 206.63C256.205 206.63 256.481 206.802 256.616 207.078C257.205 208.047 257.997 208.87 258.96 209.458C266.476 214.453 277.403 204.599 277.887 204.182C278.059 204.011 278.163 203.771 278.163 203.563C278.194 203.323 278.09 203.078 277.955 202.906Z" fill="#E8E7E7"/>
<path d="M309.597 203.354C309.425 203.182 309.217 203.114 308.977 203.078C308.733 203.078 308.493 203.182 308.321 203.354C303.118 208.458 295.535 210.213 292.363 209.219C289.675 208.354 288.431 205.906 287.878 203.323C287.78 202.734 287.878 202.182 288.191 201.703C292.326 194.672 296.707 184.536 295.186 182.088C294.842 181.536 294.222 181.26 293.566 181.364C289.743 181.849 286.467 189.776 285.811 196.844C285.675 198.359 285.675 199.838 285.78 201.323C285.811 201.807 285.707 202.286 285.431 202.703C285.227 203.047 284.983 203.427 284.743 203.771C281.712 208.25 279.644 209.698 278.78 209.594C278.332 209.562 277.951 209.25 277.847 208.838C277.503 207.078 277.92 205.286 278.92 203.838C279.644 202.979 280.712 202.01 281.743 202.219C282.332 202.39 282.811 202.838 283.056 203.39C283.16 203.875 283.608 204.219 284.087 204.151C284.571 204.078 284.915 203.63 284.847 203.114C284.503 201.875 283.571 200.911 282.332 200.531C281.264 200.187 279.54 200.323 277.54 202.667C276.436 203.943 275.332 207.323 276.16 209.489C276.503 210.526 277.436 211.25 278.503 211.385C278.608 211.385 278.748 211.385 278.847 211.385C280.675 211.385 282.988 209.422 285.707 205.526C285.811 205.39 286.019 205.286 286.227 205.323C286.431 205.323 286.602 205.458 286.675 205.63C287.431 208.146 289.363 210.114 291.811 210.937C295.878 212.213 304.149 209.943 309.597 204.63C309.941 204.286 309.941 203.734 309.597 203.354ZM287.639 197.015C288.191 190.708 290.707 185.156 292.842 183.573C293.014 183.469 293.259 183.432 293.467 183.573C293.639 183.672 293.738 183.88 293.738 184.088C293.431 186.708 291.571 191.432 288.123 197.568C287.571 198.463 287.571 197.635 287.639 197.015Z" fill="#E8E7E7"/>
<path d="M330.693 201.943C330.313 201.599 329.761 201.599 329.417 201.979C329.276 202.083 318.11 213.458 310.698 208.047C308.422 206.391 310.63 202.083 310.662 202.047C310.87 201.599 310.698 201.083 310.25 200.839C309.802 200.635 309.287 200.771 309.042 201.219C308.906 201.427 306.115 206.906 309.63 209.49C311.25 210.698 313.25 211.354 315.281 211.318C322.729 211.318 330.276 203.63 330.693 203.219C330.865 203.047 330.969 202.839 330.969 202.599C330.932 202.354 330.865 202.115 330.693 201.943ZM308.667 199.219C308.802 199.219 308.943 199.188 309.078 199.115C309.906 198.703 310.63 198.151 311.287 197.495C311.63 197.12 311.594 196.568 311.25 196.219C310.87 195.875 310.318 195.875 309.974 196.255C309.458 196.771 308.87 197.188 308.219 197.531C307.87 197.703 307.667 198.151 307.766 198.531C307.87 198.943 308.25 199.219 308.667 199.219Z" fill="#E8E7E7"/>
<path d="M353.164 201.703C352.992 201.531 352.784 201.458 352.544 201.458C352.305 201.458 352.06 201.531 351.888 201.703C348.581 204.839 344.513 207.047 340.065 208.115C339.893 208.182 339.685 208.115 339.586 207.974C339.482 207.802 339.445 207.63 339.549 207.458C340.169 206.25 340.034 204.802 339.237 203.703C338.758 203.047 338.138 202.495 337.414 202.083C336.445 201.427 335.377 200.667 335.341 199.875C335.377 199.427 335.549 199.016 335.862 198.667L337.721 196.911C338.065 196.568 338.101 196.016 337.789 195.672C337.482 195.292 336.966 195.224 336.549 195.531C335.825 196.083 335.138 196.703 334.549 197.427L329.242 202.391C329.002 202.599 328.898 202.943 328.966 203.255C329.034 203.599 329.278 203.839 329.586 203.943C329.898 204.01 330.242 203.943 330.482 203.703L333.101 201.255C333.242 201.115 333.414 201.083 333.586 201.083C333.758 201.115 333.898 201.219 333.966 201.359C334.617 202.255 335.445 203.01 336.377 203.563C336.893 203.875 337.341 204.219 337.721 204.667C338.065 205.047 338.237 205.563 338.138 206.078C338.034 206.599 337.721 207.047 337.273 207.286C335.07 208.526 332.273 207.943 330.758 205.906C330.518 205.526 329.966 205.391 329.555 205.667C329.138 205.906 329.002 206.422 329.242 206.87C330.377 208.839 332.414 210.115 334.69 210.286C335.273 210.391 335.825 210.422 336.414 210.422C342.237 210.422 349.409 206.771 353.164 202.979C353.508 202.63 353.508 202.047 353.164 201.703Z" fill="#E8E7E7"/>
<path d="M380.707 202.391C380.535 202.219 380.327 202.083 380.087 202.083C379.842 202.047 379.603 202.115 379.431 202.255C379.29 202.354 366.019 212.906 354.957 208.354C352.717 207.422 352.613 206.219 352.681 205.563C352.681 205.458 352.717 205.354 352.821 205.286C352.889 205.219 353.024 205.219 353.129 205.25C355.368 205.391 357.608 204.802 359.54 203.599C361.196 202.531 361.472 201.359 361.368 200.599C361.301 199.359 360.301 198.359 359.024 198.323C356.301 198.188 351.748 201.427 350.993 204.875C350.681 206.151 350.717 208.563 354.269 210.01C356.436 210.906 358.712 211.318 361.024 211.318C370.915 211.318 380.087 204.047 380.566 203.667C380.738 203.531 380.879 203.286 380.879 203.078C380.91 202.839 380.842 202.599 380.707 202.391ZM353.92 203.151C355.264 201.286 357.509 200.047 358.92 200.151C359.301 200.151 359.504 200.286 359.577 200.807C359.608 201.151 359.233 201.635 358.54 202.083C357.129 203.01 352.889 204.526 353.92 203.151Z" fill="#E8E7E7"/>
<path d="M174.327 174.299C174.327 178.382 174.796 181.189 175.744 182.715C176.687 184.231 178.025 184.986 179.765 184.986C181.515 184.986 182.817 184.33 183.681 183.007C184.556 181.689 185.14 179.189 185.431 175.507L190.661 176.174C190.213 181.257 189.082 184.809 187.265 186.82C185.442 188.83 182.838 189.84 179.452 189.84C176.077 189.84 173.395 188.627 171.411 186.195C169.421 183.752 168.431 179.267 168.431 172.736V152.444C168.431 145.918 169.421 141.439 171.411 139.007C173.395 136.564 176.067 135.34 179.431 135.34C182.791 135.34 185.353 136.215 187.119 137.965C188.879 139.705 189.963 142.809 190.369 147.278L184.911 148.632C184.619 145.455 184.062 143.252 183.244 142.028C182.421 140.809 181.202 140.194 179.577 140.194C177.963 140.194 176.687 140.981 175.744 142.549C174.796 144.122 174.327 146.997 174.327 151.174V174.299Z" fill="#E8E7E7"/>
<path d="M227.54 152.069V173.111C227.54 179.434 226.529 183.799 224.519 186.215C222.503 188.632 219.613 189.84 215.852 189.84C212.102 189.84 209.217 188.632 207.207 186.215C205.191 183.799 204.186 179.434 204.186 173.111V152.069C204.186 145.752 205.191 141.382 207.207 138.965C209.217 136.549 212.102 135.34 215.852 135.34C219.613 135.34 222.503 136.549 224.519 138.965C226.529 141.382 227.54 145.752 227.54 152.069ZM221.644 174.236V150.944C221.644 143.778 219.727 140.194 215.894 140.194C214.061 140.194 212.628 140.965 211.602 142.507C210.587 144.049 210.082 146.861 210.082 150.944V174.236C210.082 178.319 210.587 181.132 211.602 182.674C212.628 184.215 214.061 184.986 215.894 184.986C219.727 184.986 221.644 181.403 221.644 174.236Z" fill="#E8E7E7"/>
<path d="M259.785 176.986C259.785 173.017 258.441 169.96 255.764 167.819L249.785 163.403C245.295 160.226 243.056 155.523 243.056 149.299C243.056 144.132 244.04 140.517 246.014 138.444C247.983 136.377 250.67 135.34 254.077 135.34C257.478 135.34 260.124 136.299 262.014 138.215C263.915 140.132 265.061 143.606 265.452 148.632L259.785 149.903C259.587 143.528 257.733 140.34 254.223 140.34C250.723 140.34 248.973 143.059 248.973 148.486C248.973 150.877 249.228 152.819 249.743 154.319C250.269 155.809 251.275 157.148 252.764 158.34L258.66 162.736C260.061 163.736 261.181 164.689 262.014 165.59C262.858 166.481 263.67 167.913 264.452 169.882C265.228 171.84 265.618 174.163 265.618 176.84C265.618 181.622 264.582 184.981 262.514 186.924C260.441 188.866 257.639 189.84 254.098 189.84C250.566 189.84 247.811 188.695 245.827 186.403C243.837 184.111 242.618 180.028 242.16 174.153L247.764 173.194C247.973 177.418 248.582 180.424 249.598 182.215C250.608 184.007 252.04 184.903 253.889 184.903C257.816 184.903 259.785 182.267 259.785 176.986Z" fill="#E8E7E7"/>
<path d="M293.456 188.715H287.622V171.257L277.768 136.465H283.602L290.539 163.403L297.414 136.465H303.227L293.456 171.257V188.715Z" fill="#E8E7E7"/>
</svg>
