<svg width="166" height="134" viewBox="0 0 166 134" fill="none" xmlns="http://www.w3.org/2000/svg">
<mask id="mask0_140_40" style="mask-type:luminance" maskUnits="userSpaceOnUse" x="0" y="0" width="166" height="119">
<path d="M0 0H165.839V118.458H0V0Z" fill="white"/>
</mask>
<g mask="url(#mask0_140_40)">
<path fill-rule="evenodd" clip-rule="evenodd" d="M0 11.8542C0 5.32292 5.29167 0.03125 11.8229 0.03125H153.677C160.208 0.03125 165.5 5.32292 165.5 11.8542V43.3802H157.62V11.8542C157.62 9.67708 155.854 7.91146 153.677 7.91146H11.8229C9.64583 7.91146 7.88021 9.67708 7.88021 11.8542V106.427C7.88021 108.604 9.64583 110.365 11.8229 110.365H66.9896V118.245H11.8229C5.29167 118.245 0 112.953 0 106.427V11.8542Z" fill="#113049"/>
</g>
<path fill-rule="evenodd" clip-rule="evenodd" d="M3.9375 27.6143H161.557V35.4945H3.9375V27.6143Z" fill="#113049"/>
<path fill-rule="evenodd" clip-rule="evenodd" d="M23.6406 82.7812H63.0469V90.6615H23.6406V82.7812Z" fill="#113049"/>
<mask id="mask1_140_40" style="mask-type:luminance" maskUnits="userSpaceOnUse" x="77" y="46" width="89" height="88">
<path d="M77.8384 46.458H165.838V134H77.8384V46.458Z" fill="white"/>
</mask>
<g mask="url(#mask1_140_40)">
<path fill-rule="evenodd" clip-rule="evenodd" d="M122.156 55.1976C102.568 55.1976 86.6873 71.0778 86.6873 90.6611C86.6873 110.25 102.568 126.13 122.156 126.13C141.739 126.13 157.62 110.25 157.62 90.6611C157.62 71.0778 141.739 55.1976 122.156 55.1976ZM78.8071 90.6611C78.8071 66.7236 98.2134 47.3174 122.156 47.3174C146.094 47.3174 165.5 66.7236 165.5 90.6611C165.5 114.604 146.094 134.01 122.156 134.01C98.2134 134.01 78.8071 114.604 78.8071 90.6611Z" fill="#113049"/>
</g>
<path fill-rule="evenodd" clip-rule="evenodd" d="M119.323 98.8851L136.682 74.583L143.094 79.1611L123.39 106.744C122.776 107.609 121.838 108.187 120.786 108.349C119.739 108.51 118.672 108.244 117.823 107.609L102.057 95.7861L106.786 89.4788L119.323 98.8851Z" fill="#113049"/>
</svg>
