<svg width="50" height="50" viewBox="0 0 50 50" fill="none" xmlns="http://www.w3.org/2000/svg">
<g clip-path="url(#clip0_151_55)">
<path d="M12.5001 4.16675C18.1042 4.16675 22.9667 7.32717 25.4105 11.9605C27.8626 8.50633 31.8959 6.25008 36.4584 6.25008H43.7501V11.4584C43.7501 18.9376 37.6876 25.0001 30.2084 25.0001H27.0834V27.0834H37.5001V41.6668C37.5001 43.9688 35.6355 45.8334 33.3334 45.8334H16.6667C14.3647 45.8334 12.5001 43.9688 12.5001 41.6668V27.0834H22.9167V22.9167H18.7501C10.6959 22.9167 4.16675 16.3876 4.16675 8.33342V4.16675H12.5001ZM33.3334 31.2501H16.6667V41.6668H33.3334V31.2501ZM39.5834 10.4167H36.4584C31.2813 10.4167 27.0834 14.6147 27.0834 19.7917V20.8334H30.2084C35.3855 20.8334 39.5834 16.6355 39.5834 11.4584V10.4167ZM12.5001 8.33342H8.33341C8.33341 14.0855 12.998 18.7501 18.7501 18.7501H22.9167C22.9167 12.998 18.2522 8.33342 12.5001 8.33342Z" fill="url(#paint0_linear_151_55)"/>
</g>
<defs>
<linearGradient id="paint0_linear_151_55" x1="15.7539" y1="8.63652" x2="34.0496" y2="45.1809" gradientUnits="userSpaceOnUse">
<stop stop-color="#22407C"/>
<stop offset="1" stop-color="#9F7A64"/>
</linearGradient>
<clipPath id="clip0_151_55">
<rect width="50" height="50" fill="white"/>
</clipPath>
</defs>
</svg>
