<svg width="21" height="21" viewBox="0 0 21 21" fill="none" xmlns="http://www.w3.org/2000/svg">
<path fill-rule="evenodd" clip-rule="evenodd" d="M10.6769 18.4968C12.7986 18.4968 14.8334 17.654 16.3337 16.1537C17.834 14.6534 18.6769 12.6186 18.6769 10.4968C18.6769 8.37509 17.834 6.34026 16.3337 4.83997C14.8334 3.33968 12.7986 2.49683 10.6769 2.49683C8.55515 2.49683 6.52032 3.33968 5.02003 4.83997C3.51973 6.34026 2.67688 8.37509 2.67688 10.4968C2.67688 12.6186 3.51973 14.6534 5.02003 16.1537C6.52032 17.654 8.55515 18.4968 10.6769 18.4968ZM11.6769 7.49683C11.6769 7.23161 11.5715 6.97726 11.384 6.78972C11.1965 6.60218 10.9421 6.49683 10.6769 6.49683C10.4117 6.49683 10.1573 6.60218 9.96977 6.78972C9.78224 6.97726 9.67688 7.23161 9.67688 7.49683V9.49683H7.67688C7.41166 9.49683 7.15731 9.60218 6.96977 9.78972C6.78224 9.97726 6.67688 10.2316 6.67688 10.4968C6.67688 10.762 6.78224 11.0164 6.96977 11.2039C7.15731 11.3915 7.41166 11.4968 7.67688 11.4968H9.67688V13.4968C9.67688 13.762 9.78224 14.0164 9.96977 14.2039C10.1573 14.3915 10.4117 14.4968 10.6769 14.4968C10.9421 14.4968 11.1965 14.3915 11.384 14.2039C11.5715 14.0164 11.6769 13.762 11.6769 13.4968V11.4968H13.6769C13.9421 11.4968 14.1965 11.3915 14.384 11.2039C14.5715 11.0164 14.6769 10.762 14.6769 10.4968C14.6769 10.2316 14.5715 9.97726 14.384 9.78972C14.1965 9.60218 13.9421 9.49683 13.6769 9.49683H11.6769V7.49683Z" fill="#22407C"/>
</svg>
