<svg width="25" height="25" viewBox="0 0 25 25" fill="none" xmlns="http://www.w3.org/2000/svg">
<path d="M21.4307 21.2944L15.4307 15.2944M17.4307 10.2944C17.4307 11.2137 17.2496 12.1239 16.8978 12.9732C16.546 13.8225 16.0304 14.5942 15.3804 15.2442C14.7304 15.8942 13.9587 16.4098 13.1094 16.7616C12.2602 17.1134 11.3499 17.2944 10.4307 17.2944C9.51141 17.2944 8.60116 17.1134 7.75188 16.7616C6.9026 16.4098 6.13093 15.8942 5.48092 15.2442C4.83091 14.5942 4.31529 13.8225 3.96351 12.9732C3.61172 12.1239 3.43066 11.2137 3.43066 10.2944C3.43066 8.43792 4.16816 6.65744 5.48092 5.34469C6.79367 4.03193 8.57415 3.29443 10.4307 3.29443C12.2872 3.29443 14.0677 4.03193 15.3804 5.34469C16.6932 6.65744 17.4307 8.43792 17.4307 10.2944Z" stroke="white" stroke-width="2" stroke-linecap="round" stroke-linejoin="round"/>
</svg>
