<svg width="164" height="176" viewBox="0 0 164 176" fill="none" xmlns="http://www.w3.org/2000/svg">
<mask id="mask0_140_21" style="mask-type:luminance" maskUnits="userSpaceOnUse" x="0" y="0" width="164" height="176">
<path d="M0 0H164V176H0V0Z" fill="white"/>
</mask>
<g mask="url(#mask0_140_21)">
<path d="M161.974 42.724L83.276 0.364625C82.3698 -0.119751 81.3073 -0.119751 80.401 0.364625L1.70313 42.724C0.734376 43.2396 0.125 44.2657 0.125 45.3855V130.109C0.125 131.229 0.734375 132.255 1.72917 132.771L80.4323 175.13C81.3385 175.583 82.3958 175.583 83.3073 175.13L162.005 132.771C162.974 132.255 163.609 131.229 163.609 130.109V45.3855C163.578 44.2657 162.974 43.2396 161.974 42.724ZM81.8542 6.474L154.167 45.3855L132.99 56.7917L63.1823 16.5209L81.8542 6.474ZM9.53646 45.3855L32.3229 33.1303L102.094 73.4375L81.8542 84.2969L9.53646 45.3855ZM56.9219 19.8803L126.724 60.1511L108.359 70.0469L38.5833 29.7448L56.9219 19.8803ZM112.385 74.7344L128.813 65.9011V88.474L122.458 82.1823C121.005 80.6667 118.281 81.2136 117.526 83.1771L112.354 95.6459V74.7344H112.385ZM6.17708 50.4375L78.8281 89.5625V167.417L6.17708 128.292V50.4375ZM84.8802 167.417V89.5625L106.333 78.0053V110.865C106.24 114.073 110.99 115.042 112.141 112.016L121.401 89.6511L129.693 97.8855C131.474 99.7917 134.927 98.3386 134.833 95.7344V62.6355L157.469 50.4375V128.292L84.8802 167.417Z" fill="url(#paint0_linear_140_21)"/>
</g>
<defs>
<linearGradient id="paint0_linear_140_21" x1="47.9816" y1="18.8247" x2="125.923" y2="171.509" gradientUnits="userSpaceOnUse">
<stop stop-color="#22407C"/>
<stop offset="1" stop-color="#9F7A64"/>
</linearGradient>
</defs>
</svg>
