<svg width="164" height="176" viewBox="0 0 164 176" fill="none" xmlns="http://www.w3.org/2000/svg">
<mask id="mask0_140_21" style="mask-type:luminance" maskUnits="userSpaceOnUse" x="0" y="0" width="164" height="176">
<path d="M0 0H164V176H0V0Z" fill="white"/>
</mask>
<g mask="url(#mask0_140_21)">
<path d="M161.974 42.7241L83.276 0.364747C82.3698 -0.119629 81.3073 -0.119629 80.401 0.364747L1.70313 42.7241C0.734376 43.2397 0.125 44.2658 0.125 45.3856V130.11C0.125 131.229 0.734375 132.255 1.72917 132.771L80.4323 175.13C81.3385 175.584 82.3958 175.584 83.3073 175.13L162.005 132.771C162.974 132.255 163.609 131.229 163.609 130.11V45.3856C163.578 44.2658 162.974 43.2397 161.974 42.7241ZM81.8542 6.47412L154.167 45.3856L132.99 56.7918L63.1823 16.521L81.8542 6.47412ZM9.53646 45.3856L32.3229 33.1304L102.094 73.4377L81.8542 84.297L9.53646 45.3856ZM56.9219 19.8804L126.724 60.1512L108.359 70.047L38.5833 29.745L56.9219 19.8804ZM112.385 74.7345L128.813 65.9012V88.4741L122.458 82.1825C121.005 80.6668 118.281 81.2137 117.526 83.1772L112.354 95.646V74.7345H112.385ZM6.17708 50.4377L78.8281 89.5627V167.417L6.17708 128.292V50.4377ZM84.8802 167.417V89.5627L106.333 78.0054V110.865C106.24 114.073 110.99 115.042 112.141 112.016L121.401 89.6512L129.693 97.8856C131.474 99.7918 134.927 98.3387 134.833 95.7345V62.6356L157.469 50.4377V128.292L84.8802 167.417Z" fill="#113049"/>
</g>
</svg>
