<svg width="31" height="31" viewBox="0 0 31 31" fill="none" xmlns="http://www.w3.org/2000/svg">
<path d="M5.15881 2.44727C4.76099 2.44727 4.37946 2.6053 4.09815 2.88661C3.81685 3.16791 3.65881 3.54944 3.65881 3.94727C3.65881 4.34509 3.81685 4.72662 4.09815 5.00793C4.37946 5.28923 4.76099 5.44727 5.15881 5.44727H6.98881L7.44631 7.28027C7.45086 7.30137 7.45586 7.32238 7.46131 7.34327L9.49831 15.4883L8.15881 16.8263C6.26881 18.7163 7.60681 21.9473 10.2798 21.9473H23.1588C23.5566 21.9473 23.9382 21.7892 24.2195 21.5079C24.5008 21.2266 24.6588 20.8451 24.6588 20.4473C24.6588 20.0494 24.5008 19.6679 24.2195 19.3866C23.9382 19.1053 23.5566 18.9473 23.1588 18.9473H10.2798L11.7798 17.4473H21.6588C21.9373 17.4471 22.2103 17.3694 22.4471 17.2229C22.6839 17.0764 22.8753 16.8669 22.9998 16.6178L27.4998 7.61777C27.6141 7.38913 27.668 7.1351 27.6565 6.87977C27.645 6.62445 27.5684 6.37629 27.4341 6.15886C27.2998 5.94142 27.1121 5.76192 26.8889 5.63738C26.6657 5.51284 26.4144 5.4474 26.1588 5.44727H10.0788L9.61381 3.58277C9.53256 3.2584 9.34524 2.97048 9.08162 2.76475C8.81801 2.55902 8.49321 2.44727 8.15881 2.44727H5.15881ZM24.6588 25.6973C24.6588 26.294 24.4218 26.8663 23.9998 27.2883C23.5778 27.7102 23.0056 27.9473 22.4088 27.9473C21.8121 27.9473 21.2398 27.7102 20.8178 27.2883C20.3959 26.8663 20.1588 26.294 20.1588 25.6973C20.1588 25.1005 20.3959 24.5282 20.8178 24.1063C21.2398 23.6843 21.8121 23.4473 22.4088 23.4473C23.0056 23.4473 23.5778 23.6843 23.9998 24.1063C24.4218 24.5282 24.6588 25.1005 24.6588 25.6973ZM10.4088 27.9473C11.0056 27.9473 11.5778 27.7102 11.9998 27.2883C12.4218 26.8663 12.6588 26.294 12.6588 25.6973C12.6588 25.1005 12.4218 24.5282 11.9998 24.1063C11.5778 23.6843 11.0056 23.4473 10.4088 23.4473C9.81208 23.4473 9.23978 23.6843 8.81782 24.1063C8.39587 24.5282 8.15881 25.1005 8.15881 25.6973C8.15881 26.294 8.39587 26.8663 8.81782 27.2883C9.23978 27.7102 9.81208 27.9473 10.4088 27.9473Z" fill="white"/>
</svg>
