<svg width="50" height="50" viewBox="0 0 50 50" fill="none" xmlns="http://www.w3.org/2000/svg">
<g clip-path="url(#clip0_151_51)">
<path d="M24.9999 37.4999C21.6847 37.4999 18.5053 36.183 16.1611 33.8388C13.8169 31.4945 12.4999 28.3151 12.4999 24.9999C12.4999 21.6847 13.8169 18.5053 16.1611 16.1611C18.5053 13.8169 21.6847 12.4999 24.9999 12.4999C28.3151 12.4999 31.4945 13.8169 33.8388 16.1611C36.183 18.5053 37.4999 21.6847 37.4999 24.9999C37.4999 28.3151 36.183 31.4945 33.8388 33.8388C31.4945 36.183 28.3151 37.4999 24.9999 37.4999ZM24.9999 33.3333C27.2101 33.3333 29.3297 32.4553 30.8925 30.8925C32.4553 29.3297 33.3333 27.2101 33.3333 24.9999C33.3333 22.7898 32.4553 20.6702 30.8925 19.1074C29.3297 17.5446 27.2101 16.6666 24.9999 16.6666C22.7898 16.6666 20.6702 17.5446 19.1074 19.1074C17.5446 20.6702 16.6666 22.7898 16.6666 24.9999C16.6666 27.2101 17.5446 29.3297 19.1074 30.8925C20.6702 32.4553 22.7898 33.3333 24.9999 33.3333ZM22.9166 2.08325H27.0833V8.33325H22.9166V2.08325ZM22.9166 41.6666H27.0833V47.9166H22.9166V41.6666ZM7.32284 10.2687L10.2687 7.32284L14.6874 11.7416L11.7416 14.6874L7.32284 10.2687ZM35.3124 38.2583L38.2583 35.3124L42.677 39.7312L39.7312 42.677L35.3124 38.2583ZM39.7312 7.32075L42.677 10.2687L38.2583 14.6874L35.3124 11.7416L39.7312 7.32284V7.32075ZM11.7416 35.3124L14.6874 38.2583L10.2687 42.677L7.32284 39.7312L11.7416 35.3124ZM47.9166 22.9166V27.0833H41.6666V22.9166H47.9166ZM8.33325 22.9166V27.0833H2.08325V22.9166H8.33325Z" fill="url(#paint0_linear_151_51)"/>
</g>
<defs>
<linearGradient id="paint0_linear_151_51" x1="15.5" y1="7" x2="35" y2="48" gradientUnits="userSpaceOnUse">
<stop stop-color="#22407C"/>
<stop offset="1" stop-color="#9F7A64"/>
</linearGradient>
<clipPath id="clip0_151_51">
<rect width="50" height="50" fill="white"/>
</clipPath>
</defs>
</svg>
