<svg width="200" height="186" viewBox="0 0 200 186" fill="none" xmlns="http://www.w3.org/2000/svg">
<mask id="mask0_140_39" style="mask-type:luminance" maskUnits="userSpaceOnUse" x="0" y="0" width="200" height="186">
<path d="M0 0H199.833V186H0V0Z" fill="white"/>
</mask>
<g mask="url(#mask0_140_39)">
<path d="M187.839 92.6095C187.557 91.4585 187.146 90.3595 186.615 89.3022C186.083 88.245 185.443 87.2606 184.687 86.3491C183.932 85.4377 183.089 84.6252 182.151 83.9012C181.214 83.1825 180.203 82.5731 179.13 82.0835V76.3908C179.13 73.8856 179.005 71.3856 178.755 68.8908C178.51 66.396 178.141 63.922 177.651 61.4637C177.156 59.0106 176.547 56.5835 175.823 54.1825C175.094 51.7866 174.245 49.4325 173.286 47.1147C172.328 44.8022 171.255 42.5418 170.073 40.3283C168.891 38.12 167.604 35.9741 166.214 33.8908C164.823 31.8075 163.328 29.797 161.74 27.8595C160.151 25.9272 158.469 24.0731 156.698 22.297C154.927 20.5262 153.073 18.8439 151.135 17.2554C149.198 15.6668 147.187 14.1772 145.104 12.7814C143.021 11.3908 140.875 10.1043 138.667 8.92204C136.458 7.73975 134.193 6.66683 131.88 5.7085C129.562 4.75016 127.208 3.90641 124.812 3.17725C122.417 2.44808 119.984 1.8387 117.531 1.34391C115.073 0.854329 112.599 0.484538 110.104 0.239746C107.609 -0.0102539 105.109 -0.135254 102.604 -0.135254H97.0521C94.5469 -0.135254 92.0469 -0.0102539 89.5521 0.239746C87.0573 0.484538 84.5833 0.854329 82.125 1.34391C79.6666 1.8387 77.2396 2.44808 74.8437 3.17725C72.4479 3.90641 70.0885 4.75016 67.776 5.7085C65.4635 6.66683 63.1979 7.73975 60.9896 8.92204C58.7812 10.1043 56.6354 11.3908 54.5521 12.7814C52.4687 14.1772 50.4583 15.6668 48.5208 17.2554C46.5833 18.8439 44.7291 20.5262 42.9583 22.297C41.1875 24.0679 39.5052 25.9272 37.9166 27.8595C36.3281 29.797 34.8333 31.8075 33.4427 33.8908C32.0521 35.9741 30.7604 38.12 29.5833 40.3283C28.401 42.5418 27.3281 44.8022 26.3698 47.1147C25.4062 49.4325 24.5625 51.7866 23.8333 54.1825C23.1041 56.5835 22.4948 59.0106 22.0052 61.4637C21.5156 63.922 21.1458 66.396 20.901 68.8908C20.651 71.3856 20.526 73.8856 20.526 76.3908V82.0835C18.4375 83.047 16.6406 84.4012 15.1458 86.1512C13.651 87.9012 12.5833 89.8804 11.9531 92.0939C10.0469 93.7762 8.35415 95.646 6.86456 97.7085C5.38019 99.7658 4.1354 101.964 3.1354 104.302C2.1354 106.636 1.40623 109.057 0.942689 111.552C0.484356 114.052 0.302064 116.573 0.401022 119.11C0.28644 121.651 0.453106 124.167 0.895814 126.672C1.34373 129.172 2.05727 131.594 3.04165 133.932C4.02602 136.276 5.25519 138.485 6.72915 140.552C8.20311 142.62 9.89061 144.5 11.7812 146.198C12.3489 148.531 13.3958 150.625 14.9375 152.469V154.084C14.9375 154.979 14.9791 155.875 15.0677 156.771C15.1562 157.667 15.2864 158.552 15.4635 159.432C15.6406 160.313 15.8541 161.182 16.1198 162.042C16.3802 162.906 16.6823 163.75 17.026 164.578C17.3698 165.406 17.75 166.219 18.1771 167.011C18.5989 167.802 19.0573 168.573 19.5573 169.323C20.0573 170.068 20.5937 170.787 21.1614 171.485C21.7344 172.177 22.3333 172.844 22.9687 173.479C23.6041 174.115 24.2708 174.714 24.9635 175.287C25.6562 175.854 26.3802 176.391 27.125 176.891C27.875 177.386 28.6406 177.849 29.4375 178.271C30.2291 178.698 31.0364 179.078 31.8698 179.422C32.6979 179.766 33.5416 180.068 34.401 180.328C35.2604 180.589 36.1302 180.807 37.0156 180.985C37.8958 181.162 38.7812 181.292 39.6771 181.38C40.5729 181.469 41.4687 181.511 42.3646 181.511H67.0156C67.2031 182.162 67.4896 182.771 67.875 183.328C68.2604 183.891 68.7187 184.375 69.2604 184.787C69.8021 185.198 70.3906 185.511 71.0364 185.729C71.6771 185.953 72.3385 186.063 73.0156 186.073H85.3958C85.8021 186.068 86.2083 186.026 86.6094 185.943C87.0104 185.865 87.401 185.745 87.776 185.589C88.1562 185.427 88.5104 185.235 88.8541 185.011C89.1927 184.781 89.5052 184.521 89.7969 184.235C90.0833 183.943 90.3437 183.63 90.5729 183.292C90.7969 182.948 90.9896 182.589 91.151 182.214C91.3073 181.834 91.4271 181.448 91.5104 181.047C91.5885 180.646 91.6302 180.24 91.6354 179.828V174.448C91.625 174.037 91.5729 173.636 91.4791 173.235C91.3906 172.839 91.2656 172.448 91.0989 172.073C90.9323 171.703 90.7291 171.349 90.4948 171.011C90.2604 170.677 89.9948 170.37 89.6979 170.084C89.4062 169.802 89.0833 169.552 88.7396 169.328C88.3958 169.11 88.0312 168.927 87.651 168.776C87.2708 168.625 86.875 168.516 86.4739 168.443C86.0729 168.37 85.6666 168.339 85.2552 168.344H72.8802C72.4687 168.349 72.0625 168.391 71.6666 168.469C71.2656 168.552 70.875 168.672 70.4948 168.828C70.1198 168.985 69.7604 169.177 69.4219 169.406C69.0781 169.636 68.7656 169.896 68.4791 170.182C68.1875 170.474 67.9271 170.787 67.7031 171.125C67.4739 171.464 67.2812 171.823 67.125 172.203C66.9635 172.578 66.8437 172.969 66.7656 173.37C66.6823 173.771 66.6406 174.177 66.6406 174.584V174.896H42.2291C41.0052 174.896 39.7969 174.792 38.5937 174.584C37.3906 174.37 36.2187 174.057 35.0729 173.636C33.9271 173.214 32.8229 172.698 31.7708 172.078C30.7187 171.464 29.7291 170.761 28.7969 169.969C27.8698 169.177 27.0208 168.307 26.2448 167.365C25.4739 166.417 24.7864 165.412 24.1927 164.349C23.5989 163.281 23.0989 162.172 22.7031 161.016C22.3073 159.865 22.0156 158.682 21.8281 157.474C23.5208 158.099 25.2708 158.417 27.0729 158.438H37.3594C38.3958 158.438 39.4219 158.334 40.4375 158.136C41.4531 157.932 42.4427 157.63 43.401 157.235C44.3594 156.839 45.2656 156.354 46.1302 155.781C46.9896 155.203 47.7916 154.552 48.5208 153.818C49.2552 153.089 49.9114 152.292 50.4896 151.427C51.0677 150.568 51.5521 149.662 51.9531 148.703C52.3489 147.745 52.651 146.761 52.8541 145.745C53.0573 144.729 53.1614 143.703 53.1666 142.667V96.3439C53.1614 94.8283 52.9427 93.3491 52.5104 91.896C52.0781 90.4429 51.4531 89.0835 50.625 87.8127C49.8021 86.5418 48.8177 85.4116 47.6666 84.4272C46.5208 83.4377 45.2552 82.6356 43.875 82.0158V76.3908C43.875 74.646 43.9635 72.9116 44.1354 71.1772C44.3073 69.4429 44.5625 67.7189 44.9062 66.0106C45.2448 64.3022 45.6719 62.6147 46.1771 60.9481C46.6823 59.2814 47.2708 57.6408 47.9375 56.0314C48.6041 54.422 49.3489 52.8491 50.1666 51.3075C50.9896 49.771 51.8854 48.2814 52.8489 46.8283C53.8177 45.3804 54.8541 43.9793 55.9583 42.6304C57.0625 41.2866 58.2291 39.995 59.4583 38.7606C60.6927 37.5262 61.9791 36.3543 63.3229 35.2502C64.6719 34.1408 66.0677 33.0991 67.5104 32.1304C68.9583 31.1564 70.4531 30.2606 71.9844 29.4377C73.5208 28.6095 75.0937 27.8647 76.7031 27.1929C78.3073 26.521 79.9479 25.9325 81.6146 25.422C83.276 24.9064 84.9635 24.4793 86.6719 24.1356C88.3802 23.7918 90.1041 23.5262 91.8385 23.3491C93.5677 23.1772 95.3073 23.0835 97.0521 23.0783H102.604C104.349 23.0783 106.094 23.1668 107.828 23.3387C109.568 23.5106 111.292 23.771 113 24.1095C114.714 24.4533 116.406 24.8804 118.073 25.3856C119.745 25.896 121.385 26.4845 122.995 27.1512C124.609 27.8231 126.182 28.5679 127.724 29.3908C129.26 30.2137 130.755 31.1095 132.208 32.0835C133.661 33.0522 135.057 34.0939 136.411 35.1981C137.76 36.3075 139.052 37.4793 140.286 38.7137C141.516 39.9481 142.687 41.2397 143.797 42.5887C144.906 43.9377 145.943 45.3335 146.911 46.7866C147.885 48.2397 148.781 49.7345 149.604 51.271C150.427 52.8127 151.172 54.3856 151.844 56.0002C152.51 57.6095 153.099 59.2502 153.609 60.922C154.115 62.5939 154.542 64.2814 154.885 65.995C155.224 67.7033 155.484 69.4325 155.656 71.1668C155.828 72.9064 155.917 74.646 155.922 76.3908V82.047C154.542 82.6668 153.281 83.4689 152.13 84.4533C150.984 85.4377 150 86.5627 149.177 87.8335C148.349 89.0991 147.724 90.4585 147.292 91.9064C146.854 93.3543 146.635 94.8335 146.63 96.3439V142.526C146.63 143.563 146.734 144.589 146.937 145.604C147.141 146.625 147.443 147.61 147.839 148.568C148.24 149.521 148.729 150.432 149.302 151.292C149.88 152.151 150.536 152.948 151.271 153.682C152.005 154.412 152.802 155.068 153.661 155.641C154.526 156.219 155.437 156.703 156.391 157.099C157.349 157.495 158.339 157.797 159.354 157.995C160.37 158.198 161.396 158.297 162.432 158.297H172.719C173.573 158.297 174.417 158.224 175.255 158.084C176.099 157.943 176.922 157.735 177.729 157.459C178.536 157.188 179.312 156.849 180.068 156.448C180.818 156.047 181.531 155.589 182.208 155.073C182.885 154.557 183.521 153.99 184.104 153.37C184.693 152.75 185.224 152.089 185.703 151.386C186.177 150.682 186.599 149.943 186.958 149.167C187.318 148.396 187.609 147.599 187.839 146.781C189.724 145.084 191.406 143.209 192.875 141.141C194.349 139.078 195.578 136.88 196.562 134.547C197.552 132.209 198.271 129.797 198.724 127.302C199.177 124.807 199.354 122.297 199.255 119.761C199.365 117.219 199.193 114.693 198.74 112.188C198.292 109.682 197.573 107.255 196.589 104.906C195.599 102.563 194.37 100.349 192.891 98.2762C191.417 96.1981 189.734 94.3127 187.839 92.6095ZM73.2552 174.896H84.8437V179.417H73.2552V174.896ZM7.01561 119.146C6.97394 113.297 8.40623 107.833 11.3021 102.755V135.703C9.85936 133.188 8.77602 130.521 8.04686 127.714C7.3229 124.901 6.97915 122.047 7.01561 119.146ZM46.375 142.526C46.375 143.13 46.3177 143.724 46.1979 144.313C46.0833 144.901 45.9114 145.474 45.6771 146.031C45.4479 146.589 45.1666 147.115 44.8333 147.615C44.5 148.115 44.1198 148.578 43.6927 149C43.2708 149.427 42.8073 149.807 42.3073 150.141C41.8073 150.474 41.2812 150.755 40.7239 150.985C40.1719 151.214 39.5989 151.391 39.0104 151.505C38.4166 151.625 37.8229 151.682 37.2239 151.682H26.9375C24.7291 151.672 22.7864 150.953 21.1094 149.521C20.7969 148.834 20.3073 148.323 19.6354 147.979C18.8594 146.943 18.3125 145.802 17.9896 144.552C18.0416 144.266 18.0416 143.979 17.9896 143.693C17.9896 143.349 17.9896 142.974 17.9896 142.63V96.3439C17.9531 95.9012 17.9531 95.4533 17.9896 95.0054C18.125 94.6772 18.1927 94.3335 18.1927 93.9793C18.4479 93.0002 18.8489 92.0887 19.4062 91.245C19.9583 90.4012 20.6354 89.672 21.4323 89.0522C22.2291 88.4325 23.1041 87.9585 24.0573 87.6252C25.0156 87.297 25.9948 87.1252 27.0052 87.12H37.2916C37.8906 87.1252 38.4844 87.1877 39.0729 87.3127C39.6614 87.4325 40.2344 87.6095 40.7864 87.8439C41.3437 88.0783 41.8698 88.3647 42.3646 88.7033C42.8646 89.0418 43.3229 89.422 43.7448 89.8491C44.1666 90.2814 44.5416 90.745 44.8698 91.245C45.2031 91.7502 45.4791 92.2814 45.7083 92.8387C45.9323 93.396 46.0989 93.9689 46.2135 94.5575C46.3281 95.146 46.3802 95.745 46.375 96.3439V142.526ZM102.604 16.4585H97.0521C95.0885 16.4637 93.1302 16.5575 91.1771 16.7554C89.2239 16.9481 87.2864 17.2397 85.3646 17.62C83.4375 18.0054 81.5364 18.4845 79.6614 19.0575C77.7812 19.6252 75.9375 20.2866 74.125 21.0418C72.3125 21.7918 70.5416 22.6304 68.8125 23.5575C67.0833 24.4793 65.401 25.4897 63.7708 26.5783C62.1406 27.672 60.5677 28.8387 59.0469 30.0835C57.5312 31.3283 56.0781 32.646 54.6927 34.0314C53.3073 35.422 51.9896 36.87 50.7448 38.3908C49.5 39.9064 48.3333 41.4793 47.2396 43.1095C46.151 44.7397 45.1406 46.422 44.2135 48.1512C43.2916 49.8804 42.4531 51.6564 41.6979 53.4689C40.9479 55.2814 40.2864 57.1252 39.7135 59.0002C39.1458 60.8804 38.6666 62.7814 38.2812 64.7033C37.8958 66.6252 37.6094 68.5679 37.4114 70.521C37.2187 72.4689 37.1198 74.4272 37.1198 76.3908V80.6095H27.1406V76.3908C27.1458 74.1043 27.2604 71.8179 27.4896 69.5418C27.7135 67.2658 28.0521 65.0054 28.5 62.7606C28.9531 60.5158 29.5104 58.297 30.1771 56.1095C30.8437 53.9168 31.6146 51.7658 32.4896 49.6512C33.3698 47.5418 34.3489 45.4741 35.4271 43.4585C36.5052 41.4377 37.6823 39.4793 38.9531 37.5731C40.2291 35.672 41.5885 33.8387 43.0416 32.0679C44.4948 30.3022 46.0312 28.6043 47.6458 26.9897C49.2656 25.37 50.9583 23.8335 52.7291 22.3804C54.5 20.9272 56.3333 19.5679 58.2344 18.297C60.1406 17.021 62.0989 15.8491 64.1146 14.7658C66.1354 13.6877 68.1979 12.7085 70.3125 11.8283C72.4271 10.9533 74.5781 10.1825 76.7708 9.51579C78.9583 8.84912 81.1771 8.29183 83.4219 7.84391C85.6614 7.39079 87.9219 7.05745 90.2031 6.82829C92.4791 6.59912 94.7604 6.48454 97.0521 6.47933H102.604C104.896 6.48454 107.177 6.59912 109.453 6.82829C111.729 7.05745 113.99 7.39079 116.234 7.84391C118.479 8.29183 120.698 8.84912 122.885 9.51579C125.078 10.1825 127.229 10.9533 129.344 11.8283C131.458 12.7085 133.521 13.6877 135.542 14.7658C137.557 15.8491 139.516 17.021 141.422 18.297C143.323 19.5679 145.156 20.9272 146.927 22.3804C148.698 23.8335 150.391 25.37 152.01 26.9897C153.625 28.6043 155.161 30.3022 156.615 32.0679C158.068 33.8387 159.427 35.672 160.698 37.5731C161.974 39.4793 163.151 41.4377 164.229 43.4585C165.307 45.4741 166.286 47.5418 167.167 49.6512C168.042 51.7658 168.812 53.9168 169.479 56.1095C170.146 58.297 170.703 60.5158 171.151 62.7606C171.604 65.0054 171.943 67.2658 172.167 69.5418C172.396 71.8179 172.51 74.1043 172.516 76.3908V80.6095H162.536V76.3908C162.536 74.4272 162.437 72.4689 162.24 70.521C162.047 68.5679 161.76 66.6252 161.375 64.7033C160.99 62.7814 160.51 60.8804 159.943 59.0002C159.37 57.1252 158.708 55.2814 157.958 53.4689C157.203 51.6564 156.365 49.8804 155.437 48.1512C154.516 46.422 153.505 44.7397 152.417 43.1095C151.323 41.4793 150.156 39.9064 148.911 38.3908C147.667 36.87 146.349 35.422 144.964 34.0314C143.573 32.646 142.125 31.3283 140.604 30.0835C139.089 28.8387 137.516 27.672 135.885 26.5783C134.255 25.4897 132.573 24.4793 130.844 23.5575C129.115 22.6304 127.344 21.7918 125.531 21.0418C123.719 20.2866 121.87 19.6252 119.995 19.0575C118.12 18.4845 116.219 18.0054 114.292 17.62C112.37 17.2397 110.432 16.9481 108.479 16.7554C106.526 16.5575 104.568 16.4637 102.604 16.4585ZM172.583 151.682H162.297C161.698 151.682 161.099 151.625 160.51 151.505C159.922 151.391 159.349 151.214 158.792 150.985C158.24 150.755 157.708 150.474 157.208 150.141C156.708 149.807 156.25 149.427 155.823 149C155.401 148.578 155.021 148.115 154.687 147.615C154.349 147.115 154.068 146.589 153.839 146.031C153.609 145.474 153.437 144.901 153.318 144.313C153.203 143.724 153.141 143.13 153.141 142.526V96.3439C153.141 95.745 153.203 95.146 153.318 94.5575C153.437 93.9689 153.609 93.396 153.839 92.8439C154.068 92.2866 154.349 91.7606 154.687 91.2606C155.021 90.7606 155.401 90.297 155.823 89.87C156.25 89.4481 156.708 89.0679 157.208 88.7345C157.708 88.4012 158.24 88.12 158.792 87.8856C159.349 87.6564 159.922 87.4845 160.51 87.3647C161.099 87.2502 161.698 87.1929 162.297 87.1929H172.583C173.609 87.1929 174.609 87.3647 175.578 87.7033C176.547 88.0418 177.432 88.5314 178.24 89.1668C179.047 89.8022 179.724 90.5575 180.276 91.422C180.828 92.2866 181.224 93.2189 181.464 94.2189C181.479 94.5835 181.547 94.9377 181.667 95.2814C181.682 95.6043 181.682 95.922 181.667 96.2397V142.526C181.703 142.964 181.703 143.396 181.667 143.828C181.531 144.172 181.458 144.526 181.464 144.896C181.203 145.87 180.792 146.781 180.229 147.62C179.667 148.459 178.984 149.188 178.177 149.802C177.375 150.417 176.495 150.88 175.536 151.203C174.578 151.526 173.594 151.688 172.583 151.682ZM188.354 136.115V103.203C189.76 105.719 190.823 108.37 191.552 111.156C192.276 113.943 192.641 116.776 192.641 119.662C192.641 122.542 192.276 125.375 191.552 128.162C190.823 130.948 189.76 133.599 188.354 136.115Z" fill="#113049"/>
</g>
</svg>
