<svg width="200" height="186" viewBox="0 0 200 186" fill="none" xmlns="http://www.w3.org/2000/svg">
<mask id="mask0_140_39" style="mask-type:luminance" maskUnits="userSpaceOnUse" x="0" y="0" width="200" height="186">
<path d="M0 0H199.833V186H0V0Z" fill="white"/>
</mask>
<g mask="url(#mask0_140_39)">
<path d="M187.839 92.6093C187.557 91.4583 187.146 90.3593 186.615 89.302C186.083 88.2447 185.443 87.2603 184.687 86.3489C183.932 85.4374 183.089 84.6249 182.151 83.901C181.214 83.1822 180.203 82.5728 179.13 82.0833V76.3905C179.13 73.8853 179.005 71.3853 178.755 68.8905C178.51 66.3958 178.141 63.9218 177.651 61.4635C177.156 59.0103 176.547 56.5833 175.823 54.1822C175.094 51.7864 174.245 49.4322 173.286 47.1145C172.328 44.802 171.255 42.5416 170.073 40.328C168.891 38.1197 167.604 35.9739 166.214 33.8905C164.823 31.8072 163.328 29.7968 161.74 27.8593C160.151 25.927 158.469 24.0728 156.698 22.2968C154.927 20.526 153.073 18.8437 151.135 17.2551C149.198 15.6666 147.187 14.177 145.104 12.7812C143.021 11.3905 140.875 10.1041 138.667 8.92179C136.458 7.7395 134.193 6.66659 131.88 5.70825C129.562 4.74992 127.208 3.90617 124.812 3.177C122.417 2.44783 119.984 1.83846 117.531 1.34367C115.073 0.854085 112.599 0.484294 110.104 0.239502C107.609 -0.010498 105.109 -0.135498 102.604 -0.135498H97.0521C94.5469 -0.135498 92.0469 -0.010498 89.5521 0.239502C87.0573 0.484294 84.5833 0.854085 82.125 1.34367C79.6666 1.83846 77.2396 2.44783 74.8437 3.177C72.4479 3.90617 70.0885 4.74992 67.776 5.70825C65.4635 6.66659 63.1979 7.7395 60.9896 8.92179C58.7812 10.1041 56.6354 11.3905 54.5521 12.7812C52.4687 14.177 50.4583 15.6666 48.5208 17.2551C46.5833 18.8437 44.7291 20.526 42.9583 22.2968C41.1875 24.0676 39.5052 25.927 37.9166 27.8593C36.3281 29.7968 34.8333 31.8072 33.4427 33.8905C32.0521 35.9739 30.7604 38.1197 29.5833 40.328C28.401 42.5416 27.3281 44.802 26.3698 47.1145C25.4062 49.4322 24.5625 51.7864 23.8333 54.1822C23.1041 56.5833 22.4948 59.0103 22.0052 61.4635C21.5156 63.9218 21.1458 66.3958 20.901 68.8905C20.651 71.3853 20.526 73.8853 20.526 76.3905V82.0833C18.4375 83.0468 16.6406 84.401 15.1458 86.151C13.651 87.901 12.5833 89.8801 11.9531 92.0937C10.0469 93.776 8.35415 95.6458 6.86456 97.7083C5.38019 99.7655 4.1354 101.963 3.1354 104.302C2.1354 106.635 1.40623 109.057 0.942689 111.552C0.484356 114.052 0.302064 116.573 0.401022 119.109C0.28644 121.651 0.453106 124.167 0.895814 126.672C1.34373 129.172 2.05727 131.594 3.04165 133.932C4.02602 136.276 5.25519 138.484 6.72915 140.552C8.20311 142.62 9.89061 144.5 11.7812 146.198C12.3489 148.531 13.3958 150.625 14.9375 152.469V154.083C14.9375 154.979 14.9791 155.875 15.0677 156.771C15.1562 157.667 15.2864 158.552 15.4635 159.432C15.6406 160.312 15.8541 161.182 16.1198 162.042C16.3802 162.906 16.6823 163.75 17.026 164.578C17.3698 165.406 17.75 166.219 18.1771 167.01C18.5989 167.802 19.0573 168.573 19.5573 169.323C20.0573 170.068 20.5937 170.786 21.1614 171.484C21.7344 172.177 22.3333 172.844 22.9687 173.479C23.6041 174.115 24.2708 174.713 24.9635 175.286C25.6562 175.854 26.3802 176.391 27.125 176.891C27.875 177.385 28.6406 177.849 29.4375 178.271C30.2291 178.698 31.0364 179.078 31.8698 179.422C32.6979 179.766 33.5416 180.068 34.401 180.328C35.2604 180.588 36.1302 180.807 37.0156 180.984C37.8958 181.161 38.7812 181.292 39.6771 181.38C40.5729 181.469 41.4687 181.51 42.3646 181.51H67.0156C67.2031 182.161 67.4896 182.771 67.875 183.328C68.2604 183.891 68.7187 184.375 69.2604 184.786C69.8021 185.198 70.3906 185.51 71.0364 185.729C71.6771 185.953 72.3385 186.062 73.0156 186.073H85.3958C85.8021 186.068 86.2083 186.026 86.6094 185.943C87.0104 185.865 87.401 185.745 87.776 185.588C88.1562 185.427 88.5104 185.234 88.8541 185.01C89.1927 184.781 89.5052 184.521 89.7969 184.234C90.0833 183.943 90.3437 183.63 90.5729 183.292C90.7969 182.948 90.9896 182.588 91.151 182.213C91.3073 181.833 91.4271 181.448 91.5104 181.047C91.5885 180.646 91.6302 180.24 91.6354 179.828V174.448C91.625 174.036 91.5729 173.635 91.4791 173.234C91.3906 172.838 91.2656 172.448 91.0989 172.073C90.9323 171.703 90.7291 171.349 90.4948 171.01C90.2604 170.677 89.9948 170.37 89.6979 170.083C89.4062 169.802 89.0833 169.552 88.7396 169.328C88.3958 169.109 88.0312 168.927 87.651 168.776C87.2708 168.625 86.875 168.516 86.4739 168.443C86.0729 168.37 85.6666 168.338 85.2552 168.344H72.8802C72.4687 168.349 72.0625 168.391 71.6666 168.469C71.2656 168.552 70.875 168.672 70.4948 168.828C70.1198 168.984 69.7604 169.177 69.4219 169.406C69.0781 169.635 68.7656 169.896 68.4791 170.182C68.1875 170.474 67.9271 170.786 67.7031 171.125C67.4739 171.463 67.2812 171.823 67.125 172.203C66.9635 172.578 66.8437 172.969 66.7656 173.37C66.6823 173.771 66.6406 174.177 66.6406 174.583V174.896H42.2291C41.0052 174.896 39.7969 174.792 38.5937 174.583C37.3906 174.37 36.2187 174.057 35.0729 173.635C33.9271 173.213 32.8229 172.698 31.7708 172.078C30.7187 171.463 29.7291 170.76 28.7969 169.969C27.8698 169.177 27.0208 168.307 26.2448 167.365C25.4739 166.417 24.7864 165.411 24.1927 164.349C23.5989 163.281 23.0989 162.172 22.7031 161.016C22.3073 159.865 22.0156 158.682 21.8281 157.474C23.5208 158.099 25.2708 158.417 27.0729 158.437H37.3594C38.3958 158.437 39.4219 158.333 40.4375 158.135C41.4531 157.932 42.4427 157.63 43.401 157.234C44.3594 156.838 45.2656 156.354 46.1302 155.781C46.9896 155.203 47.7916 154.552 48.5208 153.818C49.2552 153.088 49.9114 152.292 50.4896 151.427C51.0677 150.568 51.5521 149.661 51.9531 148.703C52.3489 147.745 52.651 146.76 52.8541 145.745C53.0573 144.729 53.1614 143.703 53.1666 142.667V96.3437C53.1614 94.828 52.9427 93.3489 52.5104 91.8958C52.0781 90.4426 51.4531 89.0833 50.625 87.8124C49.8021 86.5416 48.8177 85.4114 47.6666 84.427C46.5208 83.4374 45.2552 82.6353 43.875 82.0155V76.3905C43.875 74.6458 43.9635 72.9114 44.1354 71.177C44.3073 69.4426 44.5625 67.7187 44.9062 66.0103C45.2448 64.302 45.6719 62.6145 46.1771 60.9478C46.6823 59.2812 47.2708 57.6405 47.9375 56.0312C48.6041 54.4218 49.3489 52.8489 50.1666 51.3072C50.9896 49.7708 51.8854 48.2812 52.8489 46.828C53.8177 45.3801 54.8541 43.9791 55.9583 42.6301C57.0625 41.2864 58.2291 39.9947 59.4583 38.7603C60.6927 37.526 61.9791 36.3541 63.3229 35.2499C64.6719 34.1405 66.0677 33.0989 67.5104 32.1301C68.9583 31.1562 70.4531 30.2603 71.9844 29.4374C73.5208 28.6093 75.0937 27.8645 76.7031 27.1926C78.3073 26.5208 79.9479 25.9322 81.6146 25.4218C83.276 24.9062 84.9635 24.4791 86.6719 24.1353C88.3802 23.7916 90.1041 23.526 91.8385 23.3489C93.5677 23.177 95.3073 23.0833 97.0521 23.078H102.604C104.349 23.078 106.094 23.1666 107.828 23.3385C109.568 23.5103 111.292 23.7708 113 24.1093C114.714 24.453 116.406 24.8801 118.073 25.3853C119.745 25.8958 121.385 26.4843 122.995 27.151C124.609 27.8228 126.182 28.5676 127.724 29.3905C129.26 30.2135 130.755 31.1093 132.208 32.0833C133.661 33.052 135.057 34.0937 136.411 35.1978C137.76 36.3072 139.052 37.4791 140.286 38.7135C141.516 39.9478 142.687 41.2395 143.797 42.5885C144.906 43.9374 145.943 45.3333 146.911 46.7864C147.885 48.2395 148.781 49.7343 149.604 51.2708C150.427 52.8124 151.172 54.3853 151.844 55.9999C152.51 57.6093 153.099 59.2499 153.609 60.9218C154.115 62.5937 154.542 64.2812 154.885 65.9947C155.224 67.703 155.484 69.4322 155.656 71.1666C155.828 72.9062 155.917 74.6458 155.922 76.3905V82.0468C154.542 82.6666 153.281 83.4687 152.13 84.453C150.984 85.4374 150 86.5624 149.177 87.8333C148.349 89.0989 147.724 90.4583 147.292 91.9062C146.854 93.3541 146.635 94.8333 146.63 96.3437V142.526C146.63 143.562 146.734 144.588 146.937 145.604C147.141 146.625 147.443 147.609 147.839 148.568C148.24 149.521 148.729 150.432 149.302 151.292C149.88 152.151 150.536 152.948 151.271 153.682C152.005 154.411 152.802 155.068 153.661 155.641C154.526 156.219 155.437 156.703 156.391 157.099C157.349 157.495 158.339 157.797 159.354 157.995C160.37 158.198 161.396 158.297 162.432 158.297H172.719C173.573 158.297 174.417 158.224 175.255 158.083C176.099 157.943 176.922 157.734 177.729 157.458C178.536 157.187 179.312 156.849 180.068 156.448C180.818 156.047 181.531 155.588 182.208 155.073C182.885 154.557 183.521 153.99 184.104 153.37C184.693 152.75 185.224 152.088 185.703 151.385C186.177 150.682 186.599 149.943 186.958 149.167C187.318 148.396 187.609 147.599 187.839 146.781C189.724 145.083 191.406 143.208 192.875 141.141C194.349 139.078 195.578 136.88 196.562 134.547C197.552 132.208 198.271 129.797 198.724 127.302C199.177 124.807 199.354 122.297 199.255 119.76C199.365 117.219 199.193 114.693 198.74 112.187C198.292 109.682 197.573 107.255 196.589 104.906C195.599 102.562 194.37 100.349 192.891 98.276C191.417 96.1978 189.734 94.3124 187.839 92.6093ZM73.2552 174.896H84.8437V179.417H73.2552V174.896ZM7.01561 119.146C6.97394 113.297 8.40623 107.833 11.3021 102.755V135.703C9.85936 133.187 8.77602 130.521 8.04686 127.713C7.3229 124.901 6.97915 122.047 7.01561 119.146ZM46.375 142.526C46.375 143.13 46.3177 143.724 46.1979 144.312C46.0833 144.901 45.9114 145.474 45.6771 146.031C45.4479 146.588 45.1666 147.115 44.8333 147.615C44.5 148.115 44.1198 148.578 43.6927 149C43.2708 149.427 42.8073 149.807 42.3073 150.141C41.8073 150.474 41.2812 150.755 40.7239 150.984C40.1719 151.213 39.5989 151.391 39.0104 151.505C38.4166 151.625 37.8229 151.682 37.2239 151.682H26.9375C24.7291 151.672 22.7864 150.953 21.1094 149.521C20.7969 148.833 20.3073 148.323 19.6354 147.979C18.8594 146.943 18.3125 145.802 17.9896 144.552C18.0416 144.266 18.0416 143.979 17.9896 143.693C17.9896 143.349 17.9896 142.974 17.9896 142.63V96.3437C17.9531 95.901 17.9531 95.453 17.9896 95.0051C18.125 94.677 18.1927 94.3333 18.1927 93.9791C18.4479 92.9999 18.8489 92.0885 19.4062 91.2447C19.9583 90.401 20.6354 89.6718 21.4323 89.052C22.2291 88.4322 23.1041 87.9583 24.0573 87.6249C25.0156 87.2968 25.9948 87.1249 27.0052 87.1197H37.2916C37.8906 87.1249 38.4844 87.1874 39.0729 87.3124C39.6614 87.4322 40.2344 87.6093 40.7864 87.8437C41.3437 88.078 41.8698 88.3645 42.3646 88.703C42.8646 89.0416 43.3229 89.4218 43.7448 89.8489C44.1666 90.2812 44.5416 90.7447 44.8698 91.2447C45.2031 91.7499 45.4791 92.2812 45.7083 92.8385C45.9323 93.3958 46.0989 93.9687 46.2135 94.5572C46.3281 95.1458 46.3802 95.7447 46.375 96.3437V142.526ZM102.604 16.4583H97.0521C95.0885 16.4635 93.1302 16.5572 91.1771 16.7551C89.2239 16.9478 87.2864 17.2395 85.3646 17.6197C83.4375 18.0051 81.5364 18.4843 79.6614 19.0572C77.7812 19.6249 75.9375 20.2864 74.125 21.0416C72.3125 21.7916 70.5416 22.6301 68.8125 23.5572C67.0833 24.4791 65.401 25.4895 63.7708 26.578C62.1406 27.6718 60.5677 28.8385 59.0469 30.0833C57.5312 31.328 56.0781 32.6458 54.6927 34.0312C53.3073 35.4218 51.9896 36.8697 50.7448 38.3905C49.5 39.9062 48.3333 41.4791 47.2396 43.1093C46.151 44.7395 45.1406 46.4218 44.2135 48.151C43.2916 49.8801 42.4531 51.6562 41.6979 53.4687C40.9479 55.2812 40.2864 57.1249 39.7135 58.9999C39.1458 60.8801 38.6666 62.7812 38.2812 64.703C37.8958 66.6249 37.6094 68.5676 37.4114 70.5208C37.2187 72.4687 37.1198 74.427 37.1198 76.3905V80.6093H27.1406V76.3905C27.1458 74.1041 27.2604 71.8176 27.4896 69.5416C27.7135 67.2655 28.0521 65.0051 28.5 62.7603C28.9531 60.5155 29.5104 58.2968 30.1771 56.1093C30.8437 53.9166 31.6146 51.7655 32.4896 49.651C33.3698 47.5416 34.3489 45.4739 35.4271 43.4583C36.5052 41.4374 37.6823 39.4791 38.9531 37.5728C40.2291 35.6718 41.5885 33.8385 43.0416 32.0676C44.4948 30.302 46.0312 28.6041 47.6458 26.9895C49.2656 25.3697 50.9583 23.8333 52.7291 22.3801C54.5 20.927 56.3333 19.5676 58.2344 18.2968C60.1406 17.0208 62.0989 15.8489 64.1146 14.7655C66.1354 13.6874 68.1979 12.7083 70.3125 11.828C72.4271 10.953 74.5781 10.1822 76.7708 9.51554C78.9583 8.84888 81.1771 8.29158 83.4219 7.84367C85.6614 7.39054 87.9219 7.05721 90.2031 6.82804C92.4791 6.59888 94.7604 6.48429 97.0521 6.47909H102.604C104.896 6.48429 107.177 6.59888 109.453 6.82804C111.729 7.05721 113.99 7.39054 116.234 7.84367C118.479 8.29158 120.698 8.84888 122.885 9.51554C125.078 10.1822 127.229 10.953 129.344 11.828C131.458 12.7083 133.521 13.6874 135.542 14.7655C137.557 15.8489 139.516 17.0208 141.422 18.2968C143.323 19.5676 145.156 20.927 146.927 22.3801C148.698 23.8333 150.391 25.3697 152.01 26.9895C153.625 28.6041 155.161 30.302 156.615 32.0676C158.068 33.8385 159.427 35.6718 160.698 37.5728C161.974 39.4791 163.151 41.4374 164.229 43.4583C165.307 45.4739 166.286 47.5416 167.167 49.651C168.042 51.7655 168.812 53.9166 169.479 56.1093C170.146 58.2968 170.703 60.5155 171.151 62.7603C171.604 65.0051 171.943 67.2655 172.167 69.5416C172.396 71.8176 172.51 74.1041 172.516 76.3905V80.6093H162.536V76.3905C162.536 74.427 162.437 72.4687 162.24 70.5208C162.047 68.5676 161.76 66.6249 161.375 64.703C160.99 62.7812 160.51 60.8801 159.943 58.9999C159.37 57.1249 158.708 55.2812 157.958 53.4687C157.203 51.6562 156.365 49.8801 155.437 48.151C154.516 46.4218 153.505 44.7395 152.417 43.1093C151.323 41.4791 150.156 39.9062 148.911 38.3905C147.667 36.8697 146.349 35.4218 144.964 34.0312C143.573 32.6458 142.125 31.328 140.604 30.0833C139.089 28.8385 137.516 27.6718 135.885 26.578C134.255 25.4895 132.573 24.4791 130.844 23.5572C129.115 22.6301 127.344 21.7916 125.531 21.0416C123.719 20.2864 121.87 19.6249 119.995 19.0572C118.12 18.4843 116.219 18.0051 114.292 17.6197C112.37 17.2395 110.432 16.9478 108.479 16.7551C106.526 16.5572 104.568 16.4635 102.604 16.4583ZM172.583 151.682H162.297C161.698 151.682 161.099 151.625 160.51 151.505C159.922 151.391 159.349 151.213 158.792 150.984C158.24 150.755 157.708 150.474 157.208 150.141C156.708 149.807 156.25 149.427 155.823 149C155.401 148.578 155.021 148.115 154.687 147.615C154.349 147.115 154.068 146.588 153.839 146.031C153.609 145.474 153.437 144.901 153.318 144.312C153.203 143.724 153.141 143.13 153.141 142.526V96.3437C153.141 95.7447 153.203 95.1458 153.318 94.5572C153.437 93.9687 153.609 93.3958 153.839 92.8437C154.068 92.2864 154.349 91.7603 154.687 91.2603C155.021 90.7603 155.401 90.2968 155.823 89.8697C156.25 89.4478 156.708 89.0676 157.208 88.7343C157.708 88.401 158.24 88.1197 158.792 87.8853C159.349 87.6562 159.922 87.4843 160.51 87.3645C161.099 87.2499 161.698 87.1926 162.297 87.1926H172.583C173.609 87.1926 174.609 87.3645 175.578 87.703C176.547 88.0416 177.432 88.5312 178.24 89.1666C179.047 89.802 179.724 90.5572 180.276 91.4218C180.828 92.2864 181.224 93.2187 181.464 94.2187C181.479 94.5833 181.547 94.9374 181.667 95.2812C181.682 95.6041 181.682 95.9218 181.667 96.2395V142.526C181.703 142.963 181.703 143.396 181.667 143.828C181.531 144.172 181.458 144.526 181.464 144.896C181.203 145.87 180.792 146.781 180.229 147.62C179.667 148.458 178.984 149.187 178.177 149.802C177.375 150.417 176.495 150.88 175.536 151.203C174.578 151.526 173.594 151.687 172.583 151.682ZM188.354 136.115V103.203C189.76 105.719 190.823 108.37 191.552 111.156C192.276 113.943 192.641 116.776 192.641 119.661C192.641 122.542 192.276 125.375 191.552 128.161C190.823 130.948 189.76 133.599 188.354 136.115Z" fill="url(#paint0_linear_140_39)"/>
</g>
<defs>
<linearGradient id="paint0_linear_140_39" x1="58.596" y1="19.8399" x2="134.488" y2="190.303" gradientUnits="userSpaceOnUse">
<stop stop-color="#22407C"/>
<stop offset="1" stop-color="#9F7A64"/>
</linearGradient>
</defs>
</svg>
