<svg width="50" height="50" viewBox="0 0 50 50" fill="none" xmlns="http://www.w3.org/2000/svg">
<g clip-path="url(#clip0_151_60)">
<path d="M16.6667 10.4166C16.6667 8.20645 17.5447 6.08683 19.1075 4.52403C20.6703 2.96123 22.7899 2.08325 25.0001 2.08325C27.2102 2.08325 29.3298 2.96123 30.8926 4.52403C32.4554 6.08683 33.3334 8.20645 33.3334 10.4166V21.3645C35.8813 23.1386 37.7965 25.6796 38.8002 28.6176C39.804 31.5555 39.8439 34.7372 38.9142 37.6994C37.9845 40.6616 36.1336 43.2499 33.631 45.0873C31.1285 46.9248 28.1048 47.9157 25.0001 47.9157C21.8954 47.9157 18.8717 46.9248 16.3691 45.0873C13.8665 43.2499 12.0157 40.6616 11.086 37.6994C10.1563 34.7372 10.1962 31.5555 11.1999 28.6176C12.2037 25.6796 14.1189 23.1386 16.6667 21.3645V10.4166ZM19.0501 24.7812C17.2296 26.048 15.861 27.8629 15.1435 29.9615C14.426 32.0602 14.3971 34.333 15.061 36.4492C15.7249 38.5654 17.0469 40.4145 18.8345 41.7273C20.6222 43.04 22.7822 43.7479 25.0001 43.7479C27.218 43.7479 29.378 43.04 31.1656 41.7273C32.9533 40.4145 34.2753 38.5654 34.9392 36.4492C35.603 34.333 35.5741 32.0602 34.8566 29.9615C34.1392 27.8629 32.7706 26.048 30.9501 24.7812L29.1667 23.5374V10.4166C29.1667 9.31152 28.7278 8.25171 27.9464 7.47031C27.165 6.68891 26.1051 6.24992 25.0001 6.24992C23.895 6.24992 22.8352 6.68891 22.0538 7.47031C21.2724 8.25171 20.8334 9.31152 20.8334 10.4166V23.5374L19.0501 24.7812ZM16.6667 33.3333H33.3334C33.3334 35.5434 32.4554 37.663 30.8926 39.2258C29.3298 40.7886 27.2102 41.6666 25.0001 41.6666C22.7899 41.6666 20.6703 40.7886 19.1075 39.2258C17.5447 37.663 16.6667 35.5434 16.6667 33.3333Z" fill="url(#paint0_linear_151_60)"/>
</g>
<defs>
<linearGradient id="paint0_linear_151_60" x1="18.9547" y1="6.9999" x2="43.0621" y2="39.2561" gradientUnits="userSpaceOnUse">
<stop stop-color="#22407C"/>
<stop offset="1" stop-color="#9F7A64"/>
</linearGradient>
<clipPath id="clip0_151_60">
<rect width="50" height="50" fill="white"/>
</clipPath>
</defs>
</svg>
