<svg width="50" height="50" viewBox="0 0 50 50" fill="none" xmlns="http://www.w3.org/2000/svg">
<g clip-path="url(#clip0_151_64)">
<path d="M11.7417 13.825L25 0.56665L38.2583 13.825C40.8806 16.4472 42.6663 19.7882 43.3897 23.4253C44.1132 27.0624 43.7419 30.8324 42.3227 34.2585C40.9036 37.6846 38.5003 40.613 35.4169 42.6732C32.3335 44.7335 28.7084 45.8332 25 45.8332C21.2916 45.8332 17.6665 44.7335 14.5831 42.6732C11.4997 40.613 9.09644 37.6846 7.67729 34.2585C6.25814 30.8324 5.88681 27.0624 6.61027 23.4253C7.33372 19.7882 9.11946 16.4472 11.7417 13.825ZM25 6.4604L14.6875 16.7708C13.3313 18.1236 12.2559 19.7311 11.5229 21.5008C10.79 23.2706 10.414 25.1678 10.4167 27.0833H39.5833C39.586 25.1678 39.21 23.2706 38.4771 21.5008C37.7442 19.7311 36.6687 18.1236 35.3125 16.7708L25 6.45832V6.4604Z" fill="url(#paint0_linear_151_64)"/>
</g>
<defs>
<linearGradient id="paint0_linear_151_64" x1="17.2273" y1="5.42259" x2="38.6669" y2="42.7665" gradientUnits="userSpaceOnUse">
<stop stop-color="#22407C"/>
<stop offset="1" stop-color="#9F7A64"/>
</linearGradient>
<clipPath id="clip0_151_64">
<rect width="50" height="50" fill="white"/>
</clipPath>
</defs>
</svg>
